<?xml version="1.0" encoding="UTF-8" standalone="no"?><!DOCTYPE svg PUBLIC "-//W3C//DTD SVG 1.1//EN" "http://www.w3.org/Graphics/SVG/1.1/DTD/svg11.dtd"><svg width="100%" height="100%" viewBox="0 0 3092 294" version="1.1" xmlns="http://www.w3.org/2000/svg" xmlns:xlink="http://www.w3.org/1999/xlink" xml:space="preserve" xmlns:serif="http://www.serif.com/" style="fill-rule:evenodd;clip-rule:evenodd;stroke-linejoin:round;stroke-miterlimit:2;"><g transform="matrix(1.33333,0,0,1.33333,-598.025,-1093.96)"><g transform="matrix(300,0,0,300,433.284,1038)"><path d="M0.745,-0.358c0,0.12 -0.029,0.212 -0.088,0.274c-0.059,0.063 -0.145,0.094 -0.259,0.094c-0.112,0 -0.198,-0.032 -0.258,-0.094c-0.059,-0.063 -0.089,-0.155 -0.089,-0.275c0,-0.119 0.029,-0.209 0.089,-0.272c0.059,-0.063 0.146,-0.094 0.259,-0.094c0.114,0 0.2,0.031 0.258,0.093c0.059,0.062 0.088,0.154 0.088,0.274Zm-0.491,0c0,0.138 0.048,0.207 0.144,0.207c0.049,0 0.085,-0.017 0.109,-0.05c0.023,-0.034 0.035,-0.086 0.035,-0.157c0,-0.071 -0.012,-0.124 -0.036,-0.158c-0.024,-0.034 -0.06,-0.051 -0.107,-0.051c-0.097,0 -0.145,0.07 -0.145,0.209Z" style="fill-rule:nonzero;"/></g><g transform="matrix(300,0,0,300,651.347,1038)"><path d="M0.595,-0.487c0,0.08 -0.023,0.142 -0.07,0.185c-0.047,0.043 -0.114,0.065 -0.201,0.065l-0.054,0l0,0.237l-0.193,0l0,-0.714l0.247,0c0.09,0 0.158,0.02 0.203,0.059c0.046,0.04 0.068,0.096 0.068,0.168Zm-0.325,0.093l0.035,0c0.029,0 0.052,-0.008 0.069,-0.024c0.017,-0.017 0.026,-0.039 0.026,-0.068c0,-0.048 -0.027,-0.072 -0.08,-0.072l-0.05,0l0,0.164Z" style="fill-rule:nonzero;"/></g><g transform="matrix(300,0,0,300,819.898,1038)"><path d="M0.501,0l-0.424,0l0,-0.714l0.424,0l0,0.155l-0.231,0l0,0.112l0.214,0l0,0.155l-0.214,0l0,0.135l0.231,0l0,0.157Z" style="fill-rule:nonzero;"/></g><g transform="matrix(300,0,0,300,963.546,1038)"><path d="M0.757,0l-0.253,0l-0.261,-0.503l-0.004,0c0.006,0.079 0.009,0.14 0.009,0.181l0,0.322l-0.171,0l0,-0.714l0.252,0l0.26,0.496l0.003,0c-0.005,-0.072 -0.007,-0.129 -0.007,-0.173l0,-0.323l0.172,0l0,0.714Z" style="fill-rule:nonzero;"/></g><g transform="matrix(300,0,0,300,1249.67,1038)"><path d="M0.077,-0.714l0.249,0c0.097,0 0.169,0.015 0.216,0.043c0.047,0.029 0.071,0.074 0.071,0.135c0,0.04 -0.01,0.074 -0.031,0.102c-0.02,0.029 -0.047,0.047 -0.081,0.055l0,0.005c0.044,0.012 0.076,0.031 0.096,0.059c0.02,0.027 0.03,0.062 0.03,0.106c0,0.065 -0.024,0.116 -0.073,0.153c-0.049,0.037 -0.115,0.056 -0.199,0.056l-0.278,0l0,-0.714Zm0.193,0.274l0.058,0c0.028,0 0.049,-0.006 0.064,-0.017c0.015,-0.011 0.023,-0.028 0.023,-0.051c0,-0.04 -0.03,-0.06 -0.091,-0.06l-0.054,0l0,0.128Zm0,0.141l0,0.15l0.068,0c0.06,0 0.09,-0.025 0.09,-0.076c0,-0.024 -0.008,-0.042 -0.024,-0.055c-0.016,-0.012 -0.039,-0.019 -0.07,-0.019l-0.064,0Z" style="fill:#0024ff;fill-rule:nonzero;"/></g><g transform="matrix(300,0,0,300,1430.82,1038)"><path d="M0.077,0l0,-0.714l0.193,0l0,0.558l0.275,0l0,0.156l-0.468,0Z" style="fill:#0024ff;fill-rule:nonzero;"/></g><g transform="matrix(300,0,0,300,1584.43,1038)"><path d="M0.684,-0.714l0,0.43c0,0.093 -0.026,0.166 -0.079,0.217c-0.053,0.051 -0.129,0.077 -0.229,0.077c-0.097,0 -0.172,-0.025 -0.224,-0.075c-0.053,-0.05 -0.079,-0.121 -0.079,-0.215l0,-0.434l0.194,0l0,0.419c0,0.051 0.01,0.087 0.028,0.11c0.019,0.023 0.047,0.034 0.084,0.034c0.039,0 0.068,-0.011 0.086,-0.034c0.017,-0.022 0.026,-0.059 0.026,-0.111l0,-0.418l0.193,0Z" style="fill:#0024ff;fill-rule:nonzero;"/></g><g transform="matrix(300,0,0,300,1790.48,1038)"><path d="M0.501,0l-0.424,0l0,-0.714l0.424,0l0,0.155l-0.231,0l0,0.112l0.214,0l0,0.155l-0.214,0l0,0.135l0.231,0l0,0.157Z" style="fill:#0024ff;fill-rule:nonzero;"/></g><g transform="matrix(300,0,0,300,1934.13,1038)"><path d="M0.595,-0.487c0,0.08 -0.023,0.142 -0.07,0.185c-0.047,0.043 -0.114,0.065 -0.201,0.065l-0.054,0l0,0.237l-0.193,0l0,-0.714l0.247,0c0.09,0 0.158,0.02 0.203,0.059c0.046,0.04 0.068,0.096 0.068,0.168Zm-0.325,0.093l0.035,0c0.029,0 0.052,-0.008 0.069,-0.024c0.017,-0.017 0.026,-0.039 0.026,-0.068c0,-0.048 -0.027,-0.072 -0.08,-0.072l-0.05,0l0,0.164Z" style="fill-rule:nonzero;"/></g><g transform="matrix(300,0,0,300,2102.68,1038)"><path d="M0.27,-0.26l0,0.26l-0.193,0l0,-0.714l0.234,0c0.194,0 0.291,0.07 0.291,0.211c0,0.083 -0.04,0.147 -0.121,0.192l0.208,0.311l-0.219,0l-0.151,-0.26l-0.049,0Zm0,-0.145l0.036,0c0.068,0 0.101,-0.03 0.101,-0.089c0,-0.049 -0.033,-0.074 -0.099,-0.074l-0.038,0l0,0.163Z" style="fill-rule:nonzero;"/></g><g transform="matrix(300,0,0,300,2284.71,1038)"><rect x="0.077" y="-0.714" width="0.194" height="0.714" style="fill-rule:nonzero;"/></g><g transform="matrix(300,0,0,300,2368.15,1038)"><path d="M0.757,0l-0.253,0l-0.261,-0.503l-0.004,0c0.006,0.079 0.009,0.14 0.009,0.181l0,0.322l-0.171,0l0,-0.714l0.252,0l0.26,0.496l0.003,0c-0.005,-0.072 -0.007,-0.129 -0.007,-0.173l0,-0.323l0.172,0l0,0.714Z" style="fill-rule:nonzero;"/></g><g transform="matrix(300,0,0,300,2597.34,1038)"><path d="M0.392,0l-0.193,0l0,-0.556l-0.174,0l0,-0.158l0.541,0l0,0.158l-0.174,0l0,0.556Z" style="fill-rule:nonzero;"/></g></g></svg>